<?xml version="1.0" encoding="UTF-8" standalone="no"?>
<svg
   class="svglite"
   width="864.00pt"
   height="576.00pt"
   viewBox="0 0 864.00 576.00"
   version="1.1"
   id="svg82"
   sodipodi:docname="TN_precip_plot.svg"
   inkscape:export-filename="TN_precip_plot.png"
   inkscape:export-xdpi="500"
   inkscape:export-ydpi="500"
   inkscape:version="1.2.2 (732a01da63, 2022-12-09)"
   xmlns:inkscape="http://www.inkscape.org/namespaces/inkscape"
   xmlns:sodipodi="http://sodipodi.sourceforge.net/DTD/sodipodi-0.dtd"
   xmlns="http://www.w3.org/2000/svg"
   xmlns:svg="http://www.w3.org/2000/svg">
  <sodipodi:namedview
     id="namedview84"
     pagecolor="#ffffff"
     bordercolor="#000000"
     borderopacity="0.25"
     inkscape:showpageshadow="2"
     inkscape:pageopacity="0.0"
     inkscape:pagecheckerboard="0"
     inkscape:deskcolor="#d1d1d1"
     inkscape:document-units="pt"
     showgrid="false"
     inkscape:zoom="1.046875"
     inkscape:cx="576.47761"
     inkscape:cy="384.47761"
     inkscape:window-width="1920"
     inkscape:window-height="991"
     inkscape:window-x="-9"
     inkscape:window-y="-9"
     inkscape:window-maximized="1"
     inkscape:current-layer="svg82" />
  <defs
     id="defs4">
    <style
       type="text/css"
       id="style2"><![CDATA[
    .svglite line, .svglite polyline, .svglite polygon, .svglite path, .svglite rect, .svglite circle {
      fill: none;
      stroke: #000000;
      stroke-linecap: round;
      stroke-linejoin: round;
      stroke-miterlimit: 10.00;
    }
    .svglite text {
      white-space: pre;
    }
  ]]></style>
  </defs>
  <rect
     width="100%"
     height="100%"
     style="stroke: none; fill: none;"
     id="rect6" />
  <defs
     id="defs11">
    <clipPath
       id="cpMC4wMHw4NjQuMDB8MC4wMHw1NzYuMDA=">
      <rect
         x="0.00"
         y="0.00"
         width="864.00"
         height="576.00"
         id="rect8" />
    </clipPath>
  </defs>
  <g
     clip-path="url(#cpMC4wMHw4NjQuMDB8MC4wMHw1NzYuMDA=)"
     id="g13" />
  <defs
     id="defs18">
    <clipPath
       id="cpNjMuMTF8ODU2LjAzfDcuOTd8NTMwLjIw">
      <rect
         x="63.11"
         y="7.97"
         width="792.92"
         height="522.23"
         id="rect15" />
    </clipPath>
  </defs>
  <g
     clip-path="url(#cpNjMuMTF8ODU2LjAzfDcuOTd8NTMwLjIw)"
     id="g60">
    <polyline
       points="63.11,484.25 856.03,484.25 "
       style="stroke-width: 0.78; stroke: #EBEBEB; stroke-linecap: butt;"
       id="polyline20" />
    <polyline
       points="63.11,360.09 856.03,360.09 "
       style="stroke-width: 0.78; stroke: #EBEBEB; stroke-linecap: butt;"
       id="polyline22" />
    <polyline
       points="63.11,235.93 856.03,235.93 "
       style="stroke-width: 0.78; stroke: #EBEBEB; stroke-linecap: butt;"
       id="polyline24" />
    <polyline
       points="63.11,111.76 856.03,111.76 "
       style="stroke-width: 0.78; stroke: #EBEBEB; stroke-linecap: butt;"
       id="polyline26" />
    <polyline
       points="166.10,530.20 166.10,7.97 "
       style="stroke-width: 0.78; stroke: #EBEBEB; stroke-linecap: butt;"
       id="polyline28" />
    <polyline
       points="395.38,530.20 395.38,7.97 "
       style="stroke-width: 0.78; stroke: #EBEBEB; stroke-linecap: butt;"
       id="polyline30" />
    <polyline
       points="624.65,530.20 624.65,7.97 "
       style="stroke-width: 0.78; stroke: #EBEBEB; stroke-linecap: butt;"
       id="polyline32" />
    <polyline
       points="853.92,530.20 853.92,7.97 "
       style="stroke-width: 0.78; stroke: #EBEBEB; stroke-linecap: butt;"
       id="polyline34" />
    <polyline
       points="63.11,422.17 856.03,422.17 "
       style="stroke-width: 1.55; stroke: #EBEBEB; stroke-linecap: butt;"
       id="polyline36" />
    <polyline
       points="63.11,298.01 856.03,298.01 "
       style="stroke-width: 1.55; stroke: #EBEBEB; stroke-linecap: butt;"
       id="polyline38" />
    <polyline
       points="63.11,173.84 856.03,173.84 "
       style="stroke-width: 1.55; stroke: #EBEBEB; stroke-linecap: butt;"
       id="polyline40" />
    <polyline
       points="63.11,49.68 856.03,49.68 "
       style="stroke-width: 1.55; stroke: #EBEBEB; stroke-linecap: butt;"
       id="polyline42" />
    <polyline
       points="280.74,530.20 280.74,7.97 "
       style="stroke-width: 1.55; stroke: #EBEBEB; stroke-linecap: butt;"
       id="polyline44" />
    <polyline
       points="510.01,530.20 510.01,7.97 "
       style="stroke-width: 1.55; stroke: #EBEBEB; stroke-linecap: butt;"
       id="polyline46" />
    <polyline
       points="739.28,530.20 739.28,7.97 "
       style="stroke-width: 1.55; stroke: #EBEBEB; stroke-linecap: butt;"
       id="polyline48" />
    <rect
       x="99.15"
       y="7.97"
       width="257.18"
       height="522.23"
       style="stroke-width: 1.07; stroke: none; stroke-linecap: butt; stroke-linejoin: miter; fill: #FFA500; fill-opacity: 0.20;"
       id="rect50" />
    <polygon
       points="99.15,265.29 106.44,264.30 113.72,263.12 121.00,261.69 128.28,259.98 135.56,257.92 142.84,255.48 150.12,252.62 157.40,249.32 164.69,245.59 171.97,241.46 179.25,236.98 186.53,232.19 193.81,227.12 201.09,221.83 208.37,216.32 215.65,210.64 222.93,204.79 230.22,198.81 237.50,192.73 244.78,186.61 252.06,180.50 259.34,174.44 266.62,168.46 273.90,162.56 281.18,156.74 288.46,150.98 295.75,145.29 303.03,139.65 310.31,134.09 317.59,128.62 324.87,123.29 332.15,118.10 339.43,113.08 346.71,108.25 353.99,103.62 361.28,99.19 368.56,94.98 375.84,91.04 383.12,87.41 390.40,84.13 397.68,81.26 404.96,78.84 412.24,76.89 419.53,75.41 426.81,74.38 434.09,73.81 441.37,73.66 448.65,73.95 455.93,74.65 463.21,75.75 470.49,77.22 477.77,79.02 485.06,81.09 492.34,83.41 499.62,85.89 506.90,88.48 514.18,91.11 521.46,93.72 528.74,96.26 536.02,98.71 543.30,101.05 550.59,103.25 557.87,105.29 565.15,107.15 572.43,108.82 579.71,110.27 586.99,111.48 594.27,112.47 601.55,113.23 608.83,113.79 616.12,114.18 623.40,114.40 630.68,114.47 637.96,114.39 645.24,114.15 652.52,113.73 659.80,113.11 667.08,112.28 674.37,111.22 681.65,109.93 688.93,108.40 696.21,106.65 703.49,104.68 710.77,102.47 718.05,100.01 725.33,97.29 732.61,94.27 739.90,90.92 747.18,87.24 754.46,83.18 761.74,78.75 769.02,73.95 776.30,68.78 783.58,63.26 790.86,57.44 798.14,51.34 805.43,44.99 812.71,38.44 819.99,31.71 819.99,356.89 812.71,347.30 805.43,337.89 798.14,328.69 790.86,319.74 783.58,311.09 776.30,302.76 769.02,294.81 761.74,287.25 754.46,280.11 747.18,273.40 739.90,267.12 732.61,261.26 725.33,255.81 718.05,250.74 710.77,246.04 703.49,241.70 696.21,237.71 688.93,234.05 681.65,230.73 674.37,227.73 667.08,225.04 659.80,222.63 652.52,220.47 645.24,218.50 637.96,216.68 630.68,214.95 623.40,213.25 616.12,211.56 608.83,209.83 601.55,208.05 594.27,206.19 586.99,204.25 579.71,202.20 572.43,200.01 565.15,197.67 557.87,195.15 550.59,192.43 543.30,189.53 536.02,186.46 528.74,183.27 521.46,180.01 514.18,176.72 506.90,173.45 499.62,170.24 492.34,167.13 485.06,164.15 477.77,161.35 470.49,158.79 463.21,156.52 455.93,154.59 448.65,153.07 441.37,151.98 434.09,151.39 426.81,151.31 419.53,151.75 412.24,152.71 404.96,154.15 397.68,156.07 390.40,158.41 383.12,161.17 375.84,164.33 368.56,167.85 361.28,171.73 353.99,175.91 346.71,180.35 339.43,185.00 332.15,189.84 324.87,194.82 317.59,199.95 310.31,205.23 303.03,210.69 295.75,216.36 288.46,222.25 281.18,228.39 273.90,234.77 266.62,241.41 259.34,248.30 252.06,255.48 244.78,262.98 237.50,270.83 230.22,279.08 222.93,287.77 215.65,296.93 208.37,306.56 201.09,316.66 193.81,327.23 186.53,338.26 179.25,349.75 171.97,361.72 164.69,374.18 157.40,387.15 150.12,400.63 142.84,414.62 135.56,429.07 128.28,443.93 121.00,459.16 113.72,474.69 106.44,490.48 99.15,506.46 "
       style="stroke-width: 0.00; stroke: none; stroke-linecap: butt; fill: #ADD8E6; fill-opacity: 0.50;"
       id="polygon52" />
    <polyline
       points="99.15,265.29 106.44,264.30 113.72,263.12 121.00,261.69 128.28,259.98 135.56,257.92 142.84,255.48 150.12,252.62 157.40,249.32 164.69,245.59 171.97,241.46 179.25,236.98 186.53,232.19 193.81,227.12 201.09,221.83 208.37,216.32 215.65,210.64 222.93,204.79 230.22,198.81 237.50,192.73 244.78,186.61 252.06,180.50 259.34,174.44 266.62,168.46 273.90,162.56 281.18,156.74 288.46,150.98 295.75,145.29 303.03,139.65 310.31,134.09 317.59,128.62 324.87,123.29 332.15,118.10 339.43,113.08 346.71,108.25 353.99,103.62 361.28,99.19 368.56,94.98 375.84,91.04 383.12,87.41 390.40,84.13 397.68,81.26 404.96,78.84 412.24,76.89 419.53,75.41 426.81,74.38 434.09,73.81 441.37,73.66 448.65,73.95 455.93,74.65 463.21,75.75 470.49,77.22 477.77,79.02 485.06,81.09 492.34,83.41 499.62,85.89 506.90,88.48 514.18,91.11 521.46,93.72 528.74,96.26 536.02,98.71 543.30,101.05 550.59,103.25 557.87,105.29 565.15,107.15 572.43,108.82 579.71,110.27 586.99,111.48 594.27,112.47 601.55,113.23 608.83,113.79 616.12,114.18 623.40,114.40 630.68,114.47 637.96,114.39 645.24,114.15 652.52,113.73 659.80,113.11 667.08,112.28 674.37,111.22 681.65,109.93 688.93,108.40 696.21,106.65 703.49,104.68 710.77,102.47 718.05,100.01 725.33,97.29 732.61,94.27 739.90,90.92 747.18,87.24 754.46,83.18 761.74,78.75 769.02,73.95 776.30,68.78 783.58,63.26 790.86,57.44 798.14,51.34 805.43,44.99 812.71,38.44 819.99,31.71 "
       style="stroke-width: 1.07; stroke: none; stroke-linecap: butt;"
       id="polyline54" />
    <polyline
       points="819.99,356.89 812.71,347.30 805.43,337.89 798.14,328.69 790.86,319.74 783.58,311.09 776.30,302.76 769.02,294.81 761.74,287.25 754.46,280.11 747.18,273.40 739.90,267.12 732.61,261.26 725.33,255.81 718.05,250.74 710.77,246.04 703.49,241.70 696.21,237.71 688.93,234.05 681.65,230.73 674.37,227.73 667.08,225.04 659.80,222.63 652.52,220.47 645.24,218.50 637.96,216.68 630.68,214.95 623.40,213.25 616.12,211.56 608.83,209.83 601.55,208.05 594.27,206.19 586.99,204.25 579.71,202.20 572.43,200.01 565.15,197.67 557.87,195.15 550.59,192.43 543.30,189.53 536.02,186.46 528.74,183.27 521.46,180.01 514.18,176.72 506.90,173.45 499.62,170.24 492.34,167.13 485.06,164.15 477.77,161.35 470.49,158.79 463.21,156.52 455.93,154.59 448.65,153.07 441.37,151.98 434.09,151.39 426.81,151.31 419.53,151.75 412.24,152.71 404.96,154.15 397.68,156.07 390.40,158.41 383.12,161.17 375.84,164.33 368.56,167.85 361.28,171.73 353.99,175.91 346.71,180.35 339.43,185.00 332.15,189.84 324.87,194.82 317.59,199.95 310.31,205.23 303.03,210.69 295.75,216.36 288.46,222.25 281.18,228.39 273.90,234.77 266.62,241.41 259.34,248.30 252.06,255.48 244.78,262.98 237.50,270.83 230.22,279.08 222.93,287.77 215.65,296.93 208.37,306.56 201.09,316.66 193.81,327.23 186.53,338.26 179.25,349.75 171.97,361.72 164.69,374.18 157.40,387.15 150.12,400.63 142.84,414.62 135.56,429.07 128.28,443.93 121.00,459.16 113.72,474.69 106.44,490.48 99.15,506.46 "
       style="stroke-width: 1.07; stroke: none; stroke-linecap: butt;"
       id="polyline56" />
    <polyline
       points="99.15,385.88 106.44,377.39 113.72,368.91 121.00,360.43 128.28,351.96 135.56,343.49 142.84,335.05 150.12,326.62 157.40,318.23 164.69,309.89 171.97,301.59 179.25,293.36 186.53,285.22 193.81,277.18 201.09,269.25 208.37,261.44 215.65,253.78 222.93,246.28 230.22,238.94 237.50,231.78 244.78,224.79 252.06,217.99 259.34,211.37 266.62,204.93 273.90,198.66 281.18,192.56 288.46,186.62 295.75,180.82 303.03,175.17 310.31,169.66 317.59,164.29 324.87,159.05 332.15,153.97 339.43,149.04 346.71,144.30 353.99,139.76 361.28,135.46 368.56,131.42 375.84,127.68 383.12,124.29 390.40,121.27 397.68,118.66 404.96,116.50 412.24,114.80 419.53,113.58 426.81,112.85 434.09,112.60 441.37,112.82 448.65,113.51 455.93,114.62 463.21,116.14 470.49,118.01 477.77,120.18 485.06,122.62 492.34,125.27 499.62,128.07 506.90,130.97 514.18,133.91 521.46,136.86 528.74,139.77 536.02,142.59 543.30,145.29 550.59,147.84 557.87,150.22 565.15,152.41 572.43,154.42 579.71,156.23 586.99,157.87 594.27,159.33 601.55,160.64 608.83,161.81 616.12,162.87 623.40,163.83 630.68,164.71 637.96,165.53 645.24,166.33 652.52,167.10 659.80,167.87 667.08,168.66 674.37,169.47 681.65,170.33 688.93,171.23 696.21,172.18 703.49,173.19 710.77,174.26 718.05,175.38 725.33,176.55 732.61,177.76 739.90,179.02 747.18,180.32 754.46,181.65 761.74,183.00 769.02,184.38 776.30,185.77 783.58,187.18 790.86,188.59 798.14,190.01 805.43,191.44 812.71,192.87 819.99,194.30 "
       style="stroke-width: 2.13; stroke: #00008B; stroke-linecap: butt;"
       id="polyline58" />
  </g>
  <g
     clip-path="url(#cpMC4wMHw4NjQuMDB8MC4wMHw1NzYuMDA=)"
     id="g80">
    <text
       x="55.94"
       y="426.75"
       text-anchor="end"
       style="font-size: 12.80px;fill: #4D4D4D; font-family: &quot;Arial&quot;;"
       textLength="29.16px"
       lengthAdjust="spacingAndGlyphs"
       id="text62">-0.10</text>
    <text
       x="55.94"
       y="302.58"
       text-anchor="end"
       style="font-size: 12.80px;fill: #4D4D4D; font-family: &quot;Arial&quot;;"
       textLength="29.16px"
       lengthAdjust="spacingAndGlyphs"
       id="text64">-0.05</text>
    <text
       x="55.94"
       y="178.42"
       text-anchor="end"
       style="font-size: 12.80px;fill: #4D4D4D; font-family: &quot;Arial&quot;;"
       textLength="24.90px"
       lengthAdjust="spacingAndGlyphs"
       id="text66">0.00</text>
    <text
       x="55.94"
       y="54.26"
       text-anchor="end"
       style="font-size: 12.80px;fill: #4D4D4D; font-family: &quot;Arial&quot;;"
       textLength="24.90px"
       lengthAdjust="spacingAndGlyphs"
       id="text68">0.05</text>
    <text
       x="280.74"
       y="546.53"
       text-anchor="middle"
       style="font-size: 12.80px;fill: #4D4D4D; font-family: &quot;Arial&quot;;"
       textLength="14.23px"
       lengthAdjust="spacingAndGlyphs"
       id="text70">50</text>
    <text
       x="510.01"
       y="546.53"
       text-anchor="middle"
       style="font-size: 12.80px;fill: #4D4D4D; font-family: &quot;Arial&quot;;"
       textLength="21.34px"
       lengthAdjust="spacingAndGlyphs"
       id="text72">100</text>
    <text
       x="739.28"
       y="546.53"
       text-anchor="middle"
       style="font-size: 12.80px;fill: #4D4D4D; font-family: &quot;Arial&quot;;"
       textLength="21.34px"
       lengthAdjust="spacingAndGlyphs"
       id="text74">150</text>
    <text
       x="459.57"
       y="564.66"
       text-anchor="middle"
       style="font-size: 16.00px; font-family: &quot;Arial&quot;;"
       textLength="88.05px"
       lengthAdjust="spacingAndGlyphs"
       id="text76">Precipitation</text>
    <text
       transform="translate(19.43,269.08) rotate(-90)"
       text-anchor="middle"
       style="font-size: 16.00px; font-family: &quot;Arial&quot;;"
       textLength="244.86px"
       lengthAdjust="spacingAndGlyphs"
       id="text78">Partial effect of precipitation on TN</text>
  </g>
</svg>
